<svg width="2878" height="2800" viewBox="0 0 2878 2800" fill="none" xmlns="http://www.w3.org/2000/svg">
<path d="M1483.77 42.0924C747.221 20.6437 109.216 547.692 12.8244 1239.25C-92.5653 1995.37 487.489 2675.69 1201.22 2784.66C2088.98 2920.19 2950.06 2136.11 2872.75 1285.51C2814.5 644.649 2232.48 63.8954 1483.77 42.0924Z" fill="#F4F7FA"/>
<path d="M919.293 2396.97C898.484 2446.32 859.697 2514.85 818.39 2593.79H1698.57C1564.13 2345.22 1388.26 2089.19 1525.29 1603.93C1589.6 1376.21 1788.39 963.428 1647.83 727.699C1487.71 459.136 1270.63 616.547 1178.98 403.943C1035.75 71.6485 706.575 -126.28 415.248 91.3527C127.721 306.147 227.926 924.333 737.303 1542.72C1052.48 2027.76 1027.95 2139.27 919.293 2396.97Z" fill="url(#paint0_linear_1728_33709)"/>
<mask id="mask0_1728_33709" style="mask-type:luminance" maskUnits="userSpaceOnUse" x="256" y="0" width="1443" height="2594">
<path d="M919.293 2396.97C898.484 2446.32 859.697 2514.85 818.39 2593.79H1698.57C1564.13 2345.22 1388.26 2089.19 1525.29 1603.93C1589.6 1376.21 1788.39 963.428 1647.83 727.699C1487.71 459.136 1270.63 616.547 1178.98 403.943C1035.75 71.6485 706.575 -126.28 415.248 91.3527C127.721 306.147 227.926 924.333 737.303 1542.72C1052.48 2027.76 1027.95 2139.27 919.293 2396.97Z" fill="white"/>
</mask>
<g mask="url(#mask0_1728_33709)">
<g style="mix-blend-mode:soft-light">
<path d="M1273.43 2542.79C1263.27 2428.67 1247.89 2321.54 1231.61 2208.13L1226.19 2170.31C1214.99 2116.18 1205.41 2062.51 1196.15 2010.6C1175.23 1893.39 1155.48 1782.68 1118.44 1667.47C1117.06 1660.63 1116.05 1653.93 1114.99 1646.84C1111.19 1621.52 1107.26 1595.34 1088.93 1572.42L1088.44 1571.43C938.75 955.407 659.482 359.943 258.391 -198.414L262.538 -201.392C663.89 357.33 943.39 953.213 1093.27 1569.68C1112.16 1593.57 1116.34 1621.46 1120.04 1646.09C1121.09 1653.11 1122.09 1659.75 1123.38 1666.19C1160.44 1781.44 1180.23 1892.32 1201.17 2009.71C1210.43 2061.58 1220 2115.22 1231.22 2169.44L1236.66 2207.4C1252.95 2320.89 1268.34 2428.08 1278.52 2542.34L1273.43 2542.79Z" fill="#FCFDFE"/>
<path d="M1187.43 1989.76C1139.12 1695.18 1244.12 1321.74 1340.71 1060.33C1445.3 777.241 1562.84 560.915 1564.01 558.765L1568.5 561.211C1567.32 563.361 1449.94 779.414 1345.47 1062.17C1249.11 1322.98 1144.35 1695.47 1192.47 1988.94L1187.43 1989.76Z" fill="#FCFDFE"/>
<path d="M803.157 734.726C734.478 424.983 734.129 84.0083 734.015 -28.0377C733.992 -49.469 733.977 -63.6282 733.498 -66.3104L738.523 -67.2119C739.062 -64.211 739.093 -53.0354 739.12 -28.0404C739.234 83.8684 739.582 424.422 808.142 733.62L803.157 734.726Z" fill="#FCFDFE"/>
<path d="M988.287 1219.12C843.561 964.654 256.516 805.456 250.604 803.877L251.92 798.945C257.852 800.527 846.955 960.296 992.725 1216.6L988.287 1219.12Z" fill="#FCFDFE"/>
</g>
</g>
<path d="M768.012 1414.46C772.753 1818.84 967.794 1685.59 1147.64 1725.5C1355.21 2025.82 1374.76 2304.45 1064.85 2545.08L719.539 2493.41C591.413 2487.46 441.071 2448.3 449.555 2277.69C459.149 2084.74 504.779 1962.19 286.989 1867.43C69.2006 1772.67 -24.3571 1599.76 63.8366 1403.09C156.647 1196.12 -61.0448 917.132 98.0486 778.46C375.258 536.831 763.074 993.376 768.012 1414.46Z" fill="url(#paint1_linear_1728_33709)"/>
<mask id="mask1_1728_33709" style="mask-type:luminance" maskUnits="userSpaceOnUse" x="30" y="711" width="1272" height="1835">
<path d="M768.012 1414.46C772.753 1818.84 967.794 1685.59 1147.64 1725.5C1355.21 2025.82 1374.76 2304.45 1064.85 2545.08L719.539 2493.41C591.413 2487.46 441.071 2448.3 449.555 2277.69C459.149 2084.74 504.779 1962.19 286.989 1867.43C69.2006 1772.67 -24.3571 1599.76 63.8366 1403.09C156.647 1196.12 -61.0448 917.132 98.0486 778.46C375.258 536.831 763.074 993.376 768.012 1414.46Z" fill="white"/>
</mask>
<g mask="url(#mask1_1728_33709)">
<g style="mix-blend-mode:soft-light">
<path d="M853.742 2138.12C709.378 1980.13 584.712 1805.2 482.476 1617.18C379.417 1427.61 300.858 1227.66 248.994 1022.88C219.362 906.075 198.504 787.217 186.596 667.301L191.792 666.792C203.678 786.447 224.492 905.047 254.059 1021.6C305.815 1225.95 384.211 1425.5 487.068 1614.68C589.1 1802.33 713.519 1976.91 857.597 2134.6L853.742 2138.12Z" fill="#FCFDFE"/>
<path d="M482.072 2360.22L479.701 2355.57C543.836 2322.9 619.49 2297.42 704.563 2279.84C744.034 2271.61 784.027 2266.12 824.255 2263.41L824.596 2268.62C784.609 2271.31 744.856 2276.77 705.623 2284.96C621.001 2302.44 545.79 2327.76 482.072 2360.22Z" fill="#FCFDFE"/>
<path d="M549.701 1732.56C371.387 1560.07 -8.18692 1575.83 -11.9912 1576.04L-12.2363 1570.82C-8.39022 1570.65 373.392 1554.74 553.334 1728.8L549.701 1732.56Z" fill="#FCFDFE"/>
<path d="M329.825 1282.39C276.452 1007.21 482.69 689.212 484.778 686.033L489.143 688.9C487.065 692.064 281.989 1008.32 334.955 1281.39L329.825 1282.39Z" fill="#FCFDFE"/>
</g>
</g>
<path d="M2490 2574.23L1276.75 2490.44C1275.29 2490.31 1273.82 2490.3 1272.36 2490.43L549.825 2523.16C532.541 2524.73 533.327 2569.99 552.944 2572.46L1688.23 2724.48C1692.88 2725.05 1697.58 2725.04 1702.22 2724.44L2487.76 2614.06C2498.25 2612.23 2502.08 2575.11 2490 2574.23Z" fill="url(#paint2_linear_1728_33709)"/>
<path d="M2487.6 2572.89L1276.75 2458.63C1275.29 2458.49 1273.82 2458.49 1272.36 2458.61L553.331 2521.74C540.128 2522.9 539.791 2542.08 552.944 2543.7L1688.23 2683.8C1692.88 2684.38 1697.58 2684.36 1702.22 2683.76L2487.76 2582.24C2493.33 2581.52 2493.19 2573.42 2487.6 2572.89Z" fill="url(#paint3_linear_1728_33709)"/>
<path d="M1676.23 2670.12C1677.91 2670.12 1679.6 2670.01 1681.27 2669.8L2385.33 2578.81C2385.86 2578.74 2386.35 2578.48 2386.69 2578.07C2387.04 2577.67 2387.23 2577.15 2387.22 2576.62C2387.21 2576.08 2387.01 2575.57 2386.65 2575.18C2386.28 2574.79 2385.79 2574.54 2385.26 2574.49L1304.09 2472.68C1303.84 2472.66 1303.6 2472.64 1303.36 2472.64C1303.14 2472.64 1302.92 2472.65 1302.69 2472.67L615.394 2533.01C614.737 2533.07 614.125 2533.37 613.676 2533.85C613.226 2534.33 612.971 2534.97 612.959 2535.62C612.948 2536.28 613.181 2536.92 613.613 2537.42C614.045 2537.92 614.646 2538.24 615.3 2538.32L1671.41 2669.82C1673.01 2670.02 1674.62 2670.12 1676.23 2670.12Z" fill="url(#paint4_linear_1728_33709)"/>
<path d="M2076.77 2626.35C2077.03 2628.45 2083.65 2629.37 2091.56 2628.41C2099.48 2627.45 2105.69 2624.96 2105.43 2622.86C2105.18 2620.76 2098.55 2619.84 2090.64 2620.8C2082.72 2621.77 2076.52 2624.25 2076.77 2626.35Z" fill="url(#paint5_linear_1728_33709)"/>
<path d="M1504.23 2691.17L1613.21 2705.49C1621.17 2706.53 1627.69 2702.64 1627.69 2696.78C1627.69 2690.93 1621.17 2685.42 1613.21 2684.49L1504.23 2671.76C1497.49 2670.97 1492.08 2674.64 1492.08 2679.96C1492.08 2685.27 1497.49 2690.29 1504.23 2691.17Z" fill="url(#paint6_linear_1728_33709)"/>
<path d="M1385.19 2675.53L1474.93 2687.32C1481.44 2688.18 1486.76 2684.59 1486.76 2679.3C1486.76 2674 1481.44 2669.09 1474.93 2668.33L1385.19 2657.85C1379.6 2657.2 1375.11 2660.6 1375.11 2665.44C1375.11 2670.28 1379.6 2674.8 1385.19 2675.53Z" fill="url(#paint7_linear_1728_33709)"/>
<path d="M1234.77 2655.77L1303.05 2664.74C1307.95 2665.39 1311.96 2662.19 1311.96 2657.6C1311.96 2653.01 1307.95 2648.83 1303.05 2648.25L1234.77 2640.28C1233.8 2640.13 1232.81 2640.19 1231.87 2640.47C1230.93 2640.74 1230.06 2641.22 1229.32 2641.86C1228.58 2642.51 1227.99 2643.31 1227.59 2644.21C1227.2 2645.11 1227 2646.08 1227.02 2647.06C1227.09 2649.19 1227.9 2651.23 1229.31 2652.83C1230.73 2654.42 1232.66 2655.46 1234.77 2655.77Z" fill="url(#paint8_linear_1728_33709)"/>
<g style="mix-blend-mode:soft-light" opacity="0.6">
<path d="M1108.41 2529.12C1213.92 2547.91 1283.99 2586.16 1435.4 2589.22C1566.56 2591.87 1567.53 2561.65 1719.98 2552.1C1919.69 2539.59 1971.74 2588.1 2176 2583.92C2244.95 2582.46 2313.66 2575.42 2381.47 2562.88L2487.6 2572.89C2493.19 2573.42 2493.33 2581.52 2487.76 2582.24L1702.22 2683.76C1697.58 2684.36 1692.88 2684.38 1688.23 2683.8L727.303 2565.22C892.187 2510.24 1018.44 2513.11 1108.41 2529.12Z" fill="white"/>
</g>
<path d="M1358.49 2584.65C1302.27 2584.65 1218.62 2574.92 1218.62 2548.11C1218.62 2521.31 1302.27 2511.58 1358.49 2511.58C1414.72 2511.58 1498.36 2521.31 1498.36 2548.11C1498.36 2574.92 1414.72 2584.65 1358.49 2584.65ZM1358.49 2522.25C1273.67 2522.25 1229.29 2539.09 1229.29 2548.11C1229.29 2557.14 1273.67 2573.98 1358.49 2573.98C1443.32 2573.98 1487.69 2557.14 1487.69 2548.11C1487.69 2539.09 1443.32 2522.25 1358.49 2522.25Z" fill="white"/>
<g style="mix-blend-mode:soft-light" opacity="0.6">
<path d="M1358.49 2562.29C1392.27 2562.29 1419.65 2555.95 1419.65 2548.11C1419.65 2540.28 1392.27 2533.93 1358.49 2533.93C1324.72 2533.93 1297.34 2540.28 1297.34 2548.11C1297.34 2555.95 1324.72 2562.29 1358.49 2562.29Z" fill="white"/>
</g>
<path opacity="0.56" d="M2221.84 1296.5L1498.29 2479.54L1491.68 2490.33L1482.9 2504.7L1467.52 2529.85L1456.35 2548.1C1456.35 2560.27 1415.22 2570.16 1363.54 2570.77C1361.87 2570.8 1360.2 2570.8 1358.5 2570.8C1304.45 2570.8 1260.66 2560.65 1260.66 2548.1L1250.43 2529.53L1229.92 2492.35L1222.93 2479.66L1214.16 2463.75L1171.1 2385.62L1096.92 2251.1L1013.36 2099.5L1005.02 2084.35L912.677 1916.8L853.974 1810.33L594.146 1339C654.284 1292.93 794.625 1193.19 999.199 1124.57C1029.59 1114.36 1061.38 1104.85 1094.58 1096.31C1102.25 1094.32 1110 1092.39 1117.84 1090.52C1123.72 1089.12 1129.62 1087.75 1135.56 1086.43C1140.24 1085.34 1144.98 1084.32 1149.72 1083.3H1149.78C1225.01 1067.18 1301.47 1057.44 1378.34 1054.19C1388.13 1053.76 1398.02 1053.43 1407.99 1053.23C1547.24 1050.28 1686.13 1068.52 1819.89 1107.34C1823.87 1108.45 1827.82 1109.62 1831.71 1110.79C1832.85 1111.14 1833.99 1111.47 1835.1 1111.82C1847.65 1115.59 1859.95 1119.49 1872.02 1123.52C1904.98 1134.46 1936.07 1146.13 1965.21 1158.12C2088.11 1208.69 2176.13 1265.09 2221.84 1296.5Z" fill="white"/>
<path d="M2671.23 872.312L2600.09 859.084C2603.95 812.075 2601.34 764.759 2592.33 718.46L2659.01 694.88C2677.23 688.435 2686.88 667.997 2680.61 649.184L2663.87 599.004C2657.56 580.077 2637.58 569.81 2619.2 576.117L2553.5 598.671C2533.03 554.583 2506.61 513.511 2474.98 476.601L2520.15 424.345C2533.11 409.351 2531.46 386.107 2516.44 372.368L2476.28 335.632C2461.09 321.744 2438.1 322.644 2424.94 337.703L2379.81 389.344C2338.77 359.971 2293.82 336.482 2246.28 319.56L2259.2 250.7C2263.02 230.386 2249.54 210.018 2229.04 205.193L2174.17 192.277C2153.41 187.39 2133.4 200.063 2129.54 220.601L2116.47 290.217C2064.88 284.901 2012.8 286.938 1961.79 296.268L1936.66 226.396C1929.28 205.863 1906.51 194.166 1885.77 200.318L1830.28 216.773C1809.3 222.996 1798.39 244.86 1805.97 265.558L1832.16 337.134C1784.72 358.855 1740.66 387.289 1701.32 421.561L1639.44 369.393C1621.9 354.601 1595.62 355.631 1580.79 371.758L1541.2 414.792C1526.26 431.029 1528.6 456.176 1546.39 470.891L1610.59 523.986C1581.66 566.674 1559.24 613.424 1544.05 662.704L1458.09 646.718C1434.95 642.417 1412.85 656.415 1408.79 677.999L1398.02 735.401C1393.97 756.984 1409.54 777.779 1432.72 781.833L1521.14 797.297C1519.21 847.861 1524.74 898.433 1537.54 947.387L1451.38 976.961C1429.41 984.502 1418.1 1007.19 1426.16 1027.57L1447.52 1081.6C1455.53 1101.85 1479.71 1111.98 1501.47 1104.28L1588.8 1073.4C1613.34 1116.59 1643.78 1156.15 1679.24 1190.94L1619.38 1259.43C1604.78 1276.13 1607.04 1300.37 1624.38 1313.51L1670.25 1348.25C1687.41 1361.24 1712.93 1358.25 1727.29 1341.65L1786.84 1272.75C1829.07 1297.18 1874.4 1315.81 1921.61 1328.14L1905.42 1414.38C1901.57 1434.91 1915.67 1453.74 1936.84 1456.42L1992.81 1463.5C2013.72 1466.15 2033.71 1451.82 2037.52 1431.51L2053.53 1346.21C2101.34 1347 2149.03 1341.52 2195.41 1329.92L2224 1408.05C2230.83 1426.71 2251.98 1435.58 2271.22 1427.9L2322.09 1407.59C2341.11 1399.99 2351.1 1378.85 2344.43 1360.31L2316.85 1283.6C2358.39 1261.78 2396.93 1234.66 2431.5 1202.92L2492.12 1253.05C2507 1265.36 2529.4 1262.74 2542.17 1247.26L2576.03 1206.2C2588.73 1190.81 2587.13 1168.35 2572.44 1155.96L2513.98 1106.68C2539.86 1067.92 2560.42 1025.85 2575.11 981.621L2648.3 994.422C2667.17 997.722 2685.37 984.676 2689.01 965.291L2698.69 913.742C2702.33 894.358 2690.06 875.814 2671.23 872.312ZM2015.84 1188.59C1803.95 1156.89 1658.52 960.52 1697.85 751.004C1737.18 541.488 1944.36 408.986 2153.82 453.609C2356.17 496.716 2485.27 690.138 2448.32 886.937C2411.38 1083.74 2220.53 1219.21 2015.84 1188.59Z" fill="#97A6B7"/>
<path d="M1955.68 210.649L1905.36 199.394L1879.37 241.525L1955.68 210.649Z" fill="#97A6B7"/>
<path d="M2453.98 325.895L2512.27 337.441L2504.18 380.522L2453.98 325.895Z" fill="#97A6B7"/>
<path d="M2637.54 575.493L2695.31 588.775L2674.64 618.645L2637.54 575.493Z" fill="#97A6B7"/>
<path d="M2676.14 873.866L2734.07 889.563L2709.5 914.482L2676.14 873.866Z" fill="#97A6B7"/>
<path d="M2502.6 1258.95L2558.12 1277.81L2573.85 1232.55L2502.6 1258.95Z" fill="#97A6B7"/>
<path d="M2244.83 1428.13L2294.31 1447.06L2305.49 1409.99L2244.83 1428.13Z" fill="#97A6B7"/>
<path d="M1971.62 1470.86L1927.16 1454.07L1977.79 1402.71L1971.62 1470.86Z" fill="#97A6B7"/>
<path d="M1731.74 1374.59L1680.26 1353.48L1730.99 1311.17L1731.74 1374.59Z" fill="#97A6B7"/>
<path d="M1610.88 358.667L1666.44 370.905L1636.67 407.505L1610.88 358.667Z" fill="#97A6B7"/>
<path d="M1417.38 776.168L1467.19 793.354L1470.98 750.672L1417.38 776.168Z" fill="#97A6B7"/>
<path d="M1469.81 1103.63L1518.35 1121.18L1528.66 1088.76L1469.81 1103.63Z" fill="#97A6B7"/>
<path d="M2727.81 887.716L2656.09 874.378C2659.98 826.986 2657.34 779.284 2648.26 732.608L2715.49 708.837C2733.86 702.34 2743.59 681.735 2737.27 662.769L2720.39 612.18C2714.02 593.099 2693.88 582.747 2675.35 589.105L2609.1 611.84C2588.46 567.393 2561.82 525.985 2529.94 488.773L2575.47 436.094C2588.54 420.978 2586.87 397.544 2571.73 383.692L2531.23 346.655C2515.93 332.654 2492.74 333.562 2479.47 348.742L2433.97 400.803C2392.59 371.189 2347.27 347.507 2299.33 330.446L2312.36 261.026C2316.21 240.546 2302.62 220.012 2281.95 215.147L2226.62 202.124C2205.69 197.197 2185.51 209.973 2181.62 230.678L2168.45 300.861C2116.43 295.501 2063.92 297.553 2012.48 306.958L1987.15 236.516C1979.7 215.815 1956.75 204.021 1935.83 210.223L1879.89 226.811C1858.73 233.085 1847.73 255.127 1855.37 275.994L1881.78 348.153C1833.95 370.05 1789.52 398.715 1749.86 433.266L1687.47 380.67C1669.78 365.758 1643.29 366.794 1628.33 383.053L1588.41 426.437C1573.35 442.806 1575.71 468.158 1593.65 482.994L1658.38 536.523C1629.21 579.557 1606.6 626.688 1591.29 676.37L1504.62 660.252C1481.29 655.915 1459 670.027 1454.92 691.787L1444.05 749.655C1439.97 771.415 1455.67 792.38 1479.04 796.468L1568.2 812.06C1566.26 863.036 1571.83 914.021 1584.74 963.374L1497.87 993.187C1475.72 1000.79 1464.31 1023.66 1472.43 1044.21L1493.98 1098.68C1502.05 1119.1 1526.43 1129.31 1548.38 1121.55L1636.43 1090.41C1661.17 1133.96 1691.86 1173.84 1727.62 1208.91L1667.26 1277.97C1652.55 1294.8 1654.82 1319.24 1672.31 1332.48L1718.56 1367.51C1735.86 1380.6 1761.59 1377.6 1776.07 1360.85L1836.11 1291.39C1878.7 1316.02 1924.4 1334.81 1972 1347.25L1955.68 1434.18C1951.79 1454.88 1966.01 1473.87 1987.36 1476.57L2043.79 1483.71C2064.87 1486.38 2085.03 1471.93 2088.87 1451.45L2105.02 1365.46C2153.21 1366.26 2201.31 1360.74 2248.07 1349.04L2276.89 1427.81C2283.78 1446.62 2305.11 1455.56 2324.5 1447.82L2375.8 1427.34C2394.98 1419.69 2405.05 1398.37 2398.33 1379.68L2370.51 1302.35C2412.4 1280.35 2451.26 1253.01 2486.11 1221.01L2547.23 1271.56C2562.23 1283.96 2584.82 1281.32 2597.7 1265.71L2631.84 1224.33C2644.64 1208.81 2643.03 1186.16 2628.22 1173.68L2569.27 1123.98C2595.36 1084.91 2616.09 1042.51 2630.9 997.913L2704.7 1010.82C2723.73 1014.15 2742.08 1001 2745.75 981.454L2755.5 929.484C2759.17 909.942 2746.8 891.247 2727.81 887.716ZM2067.01 1206.55C1853.36 1174.59 1706.72 976.617 1746.37 765.393C1786.03 554.172 1994.91 420.594 2206.11 465.587C2410.14 509.05 2540.31 704.051 2503.07 902.454C2465.82 1100.86 2273.39 1237.43 2067.01 1206.55Z" fill="#D8DEE8"/>
<path d="M2476.58 2092.99L2438.65 2085.94C2440.71 2060.88 2439.32 2035.65 2434.52 2010.97L2470.06 1998.4C2479.78 1994.96 2484.93 1984.07 2481.58 1974.04L2472.66 1947.28C2471.91 1944.91 2470.7 1942.71 2469.09 1940.81C2467.48 1938.9 2465.51 1937.34 2463.3 1936.21C2461.08 1935.07 2458.67 1934.39 2456.18 1934.19C2453.7 1934 2451.21 1934.3 2448.84 1935.08L2413.81 1947.1C2402.9 1923.6 2388.82 1901.7 2371.95 1882.02L2396.03 1854.16C2402.94 1846.17 2402.06 1833.78 2394.05 1826.45L2372.64 1806.87C2364.55 1799.46 2352.29 1799.94 2345.27 1807.97L2321.21 1835.5C2299.33 1819.84 2275.37 1807.32 2250.02 1798.3L2256.91 1761.59C2257.82 1756.26 2256.66 1750.78 2253.68 1746.27C2250.69 1741.76 2246.09 1738.56 2240.83 1737.32L2211.58 1730.44C2200.51 1727.83 2189.84 1734.59 2187.78 1745.54L2180.82 1782.65C2153.31 1779.82 2125.55 1780.91 2098.35 1785.88L2084.95 1748.63C2083.01 1743.32 2079.13 1738.94 2074.1 1736.37C2069.07 1733.79 2063.26 1733.2 2057.82 1734.73L2028.24 1743.5C2025.61 1744.25 2023.16 1745.54 2021.06 1747.29C2018.96 1749.04 2017.24 1751.2 2016.03 1753.65C2014.81 1756.09 2014.11 1758.77 2013.98 1761.5C2013.85 1764.23 2014.29 1766.96 2015.27 1769.51L2029.23 1807.67C2003.94 1819.25 1980.45 1834.41 1959.48 1852.68L1926.49 1824.87C1917.14 1816.98 1903.13 1817.53 1895.22 1826.13L1874.11 1849.07C1866.15 1857.73 1867.4 1871.13 1876.88 1878.98L1911.11 1907.29C1895.69 1930.05 1883.73 1954.97 1875.63 1981.24L1829.8 1972.72C1817.47 1970.43 1805.68 1977.89 1803.52 1989.4L1797.78 2020C1795.62 2031.51 1803.92 2042.59 1816.28 2044.76L1863.42 2053C1862.39 2079.96 1865.34 2106.92 1872.17 2133.02L1826.23 2148.79C1814.52 2152.81 1808.48 2164.9 1812.78 2175.77L1824.17 2204.58C1828.44 2215.37 1841.33 2220.77 1852.93 2216.67L1899.49 2200.2C1912.57 2223.23 1928.8 2244.32 1947.71 2262.87L1915.79 2299.39C1908.01 2308.29 1909.21 2321.21 1918.46 2328.22L1942.92 2346.74C1952.06 2353.66 1965.67 2352.07 1973.32 2343.22L2005.07 2306.48C2027.59 2319.51 2051.76 2329.44 2076.93 2336.02L2068.3 2381.99C2066.24 2392.94 2073.76 2402.98 2085.05 2404.41L2114.89 2408.18C2126.03 2409.59 2136.69 2401.95 2138.72 2391.12L2147.26 2345.65C2172.75 2346.07 2198.18 2343.15 2222.9 2336.97L2238.14 2378.62C2241.78 2388.57 2253.06 2393.3 2263.32 2389.2L2290.44 2378.37C2300.58 2374.32 2305.91 2363.05 2302.35 2353.17L2287.65 2312.27C2309.79 2300.63 2330.34 2286.18 2348.77 2269.26L2381.09 2295.98C2389.02 2302.54 2400.96 2301.15 2407.77 2292.89L2425.83 2271.01C2432.6 2262.8 2431.74 2250.82 2423.91 2244.22L2392.74 2217.94C2406.54 2197.28 2417.5 2174.85 2425.33 2151.27L2464.36 2158.1C2474.42 2159.86 2484.12 2152.9 2486.06 2142.57L2491.22 2115.08C2493.16 2104.75 2486.62 2094.86 2476.58 2092.99ZM2127.16 2261.61C2014.2 2244.71 1936.66 2140.02 1957.63 2028.32C1978.6 1916.62 2089.06 1845.98 2200.73 1869.77C2308.61 1892.75 2377.44 1995.87 2357.74 2100.79C2338.04 2205.71 2236.29 2277.94 2127.16 2261.61Z" fill="#97A6B7"/>
<path d="M2095.09 1740.23L2068.26 1734.23L2054.41 1756.69L2095.09 1740.23Z" fill="#97A6B7"/>
<path d="M2360.75 1801.68L2391.83 1807.83L2387.52 1830.8L2360.75 1801.68Z" fill="#97A6B7"/>
<path d="M2458.62 1934.75L2489.42 1941.83L2478.4 1957.75L2458.62 1934.75Z" fill="#97A6B7"/>
<path d="M2479.2 2093.82L2510.08 2102.19L2496.99 2115.48L2479.2 2093.82Z" fill="#97A6B7"/>
<path d="M2386.68 2299.13L2416.28 2309.18L2424.66 2285.05L2386.68 2299.13Z" fill="#97A6B7"/>
<path d="M2249.25 2389.32L2275.63 2399.42L2281.59 2379.65L2249.25 2389.32Z" fill="#97A6B7"/>
<path d="M2103.59 2412.1L2079.88 2403.16L2106.88 2375.77L2103.59 2412.1Z" fill="#97A6B7"/>
<path d="M1975.7 2360.78L1948.25 2349.52L1975.3 2326.97L1975.7 2360.78Z" fill="#97A6B7"/>
<path d="M1911.26 1819.15L1940.88 1825.67L1925.01 1845.19L1911.26 1819.15Z" fill="#97A6B7"/>
<path d="M1808.1 2041.74L1834.66 2050.9L1836.68 2028.14L1808.1 2041.74Z" fill="#97A6B7"/>
<path d="M1836.05 2216.32L1861.93 2225.68L1867.43 2208.39L1836.05 2216.32Z" fill="#97A6B7"/>
<path d="M2506.75 2101.21L2468.51 2094.1C2470.58 2068.83 2469.18 2043.4 2464.34 2018.51L2500.18 2005.84C2509.97 2002.38 2515.16 1991.39 2511.79 1981.28L2502.79 1954.31C2502.03 1951.91 2500.81 1949.69 2499.19 1947.78C2497.57 1945.86 2495.59 1944.28 2493.35 1943.14C2491.12 1942 2488.68 1941.31 2486.18 1941.11C2483.68 1940.92 2481.16 1941.22 2478.78 1942L2443.46 1954.13C2432.45 1930.43 2418.25 1908.35 2401.25 1888.51L2425.53 1860.43C2432.5 1852.37 2431.61 1839.87 2423.53 1832.49L2401.94 1812.74C2393.78 1805.28 2381.42 1805.76 2374.35 1813.86L2350.09 1841.61C2328.02 1825.82 2303.86 1813.2 2278.3 1804.1L2285.25 1767.09C2286.17 1761.72 2285 1756.2 2281.99 1751.65C2278.98 1747.11 2274.34 1743.88 2269.04 1742.63L2239.54 1735.69C2228.38 1733.06 2217.62 1739.87 2215.55 1750.91L2208.53 1788.33C2180.79 1785.47 2152.8 1786.57 2125.37 1791.58L2111.87 1754.02C2109.91 1748.67 2106 1744.26 2100.93 1741.66C2095.86 1739.06 2089.99 1738.47 2084.51 1740.01L2054.68 1748.85C2052.03 1749.61 2049.57 1750.91 2047.45 1752.67C2045.33 1754.43 2043.6 1756.62 2042.37 1759.08C2041.14 1761.55 2040.44 1764.24 2040.31 1767C2040.18 1769.75 2040.62 1772.5 2041.61 1775.07L2055.69 1813.54C2030.19 1825.22 2006.51 1840.5 1985.36 1858.92L1952.09 1830.88C1942.66 1822.93 1928.54 1823.48 1920.57 1832.15L1899.29 1855.28C1891.26 1864.01 1892.51 1877.52 1902.08 1885.43L1936.59 1913.97C1921.04 1936.91 1908.98 1962.04 1900.82 1988.53L1854.61 1979.94C1842.17 1977.62 1830.29 1985.15 1828.11 1996.75L1822.32 2027.6C1820.14 2039.2 1828.51 2050.38 1840.98 2052.56L1888.51 2060.87C1887.47 2088.05 1890.44 2115.23 1897.33 2141.54L1851.01 2157.44C1839.2 2161.49 1833.12 2173.68 1837.45 2184.64L1848.94 2213.68C1853.24 2224.57 1866.24 2230.01 1877.94 2225.87L1924.88 2209.27C1938.07 2232.49 1954.44 2253.75 1973.5 2272.45L1941.32 2309.27C1933.48 2318.24 1934.69 2331.27 1944.01 2338.33L1968.67 2357C1977.89 2363.99 1991.61 2362.38 1999.33 2353.46L2031.34 2316.42C2054.05 2329.56 2078.42 2339.57 2103.79 2346.2L2095.09 2392.55C2093.02 2403.59 2100.6 2413.71 2111.98 2415.15L2142.07 2418.96C2153.31 2420.38 2164.05 2412.68 2166.1 2401.76L2174.71 2355.91C2200.4 2356.34 2226.04 2353.4 2250.97 2347.16L2266.34 2389.15C2270.01 2399.18 2281.39 2403.95 2291.73 2399.82L2319.07 2388.91C2329.3 2384.82 2334.67 2373.46 2331.08 2363.5L2316.25 2322.27C2338.59 2310.54 2359.3 2295.96 2377.89 2278.9L2410.47 2305.85C2418.47 2312.46 2430.51 2311.06 2437.38 2302.73L2455.58 2280.67C2462.4 2272.4 2461.54 2260.32 2453.65 2253.66L2422.22 2227.17C2436.13 2206.34 2447.19 2183.73 2455.08 2159.96L2494.43 2166.84C2504.57 2168.61 2514.35 2161.6 2516.31 2151.18L2521.51 2123.48C2523.47 2113.06 2516.87 2103.09 2506.75 2101.21ZM2154.44 2271.19C2040.54 2254.15 1962.36 2148.6 1983.5 2035.99C2004.64 1923.38 2116.01 1852.16 2228.61 1876.15C2337.38 1899.32 2406.78 2003.29 2386.93 2109.06C2367.07 2214.84 2264.48 2287.65 2154.44 2271.19Z" fill="#D8DEE8"/>
<path d="M2077.06 1332.15C2173.89 1332.15 2252.4 1221.83 2252.4 1085.75C2252.4 949.661 2173.89 839.341 2077.06 839.341C1980.22 839.341 1901.71 949.661 1901.71 1085.75C1901.71 1221.83 1980.22 1332.15 2077.06 1332.15Z" fill="#D8DEE8"/>
<path d="M1541.15 488.667H1211.14C872.755 488.667 598.439 762.982 598.439 1101.37V1101.37C598.439 1281.94 744.816 1428.31 925.381 1428.31H1826.91C2007.48 1428.31 2153.86 1281.94 2153.86 1101.37C2153.86 762.984 1879.54 488.667 1541.15 488.667Z" fill="white"/>
<path d="M1483.2 2098.28H1269.1C1049.56 2098.28 871.594 1920.32 871.594 1700.78V1700.78C871.594 1583.63 966.559 1488.67 1083.7 1488.67H1668.59C1785.74 1488.67 1880.7 1583.63 1880.7 1700.78C1880.7 1920.32 1702.73 2098.28 1483.2 2098.28Z" fill="white"/>
<path d="M1840.71 1296.16H1213.39C1128.38 1296.16 1058.63 1230.99 1058.63 1150.61V1027.35C1058.63 946.967 1128.38 884.029 1213.39 886.741L1840.71 906.753C1916.63 909.175 1977.49 971.67 1977.49 1046.37V1160.91C1977.49 1235.6 1916.63 1296.16 1840.71 1296.16Z" fill="url(#paint9_linear_1728_33709)"/>
<path d="M1414.38 1082.44C1414.38 1136.12 1368.69 1179.06 1311.86 1178.34C1254.51 1177.62 1207.65 1132.8 1207.65 1078.24C1207.65 1023.67 1254.51 980.758 1311.86 982.365C1368.69 983.958 1414.38 1028.76 1414.38 1082.44Z" fill="white"/>
<path d="M1838.32 1091.06C1838.32 1142.93 1795.64 1184.45 1742.58 1183.78C1689.06 1183.11 1645.34 1139.83 1645.34 1087.13C1645.34 1034.43 1689.06 992.936 1742.58 994.436C1795.64 995.923 1838.32 1039.18 1838.32 1091.06Z" fill="white"/>
<g style="mix-blend-mode:soft-light" opacity="0.3">
<path d="M1603.8 1342.37C1510.5 1232.75 1551.96 1145.09 1429.99 996.54C1262.16 792.143 1066.39 815.272 1021.54 676.643C1009.11 638.229 1007.69 585.504 1041.02 512.62C785.404 586.35 598.439 822.014 598.439 1101.37V1101.37C598.439 1281.94 744.815 1428.31 925.379 1428.31H1711.05C1663.99 1402.66 1629.6 1372.7 1603.8 1342.37Z" fill="white"/>
</g>
<path d="M686.61 1330.44C783.448 1330.44 861.951 1220.12 861.951 1084.03C861.951 947.947 783.448 837.627 686.61 837.627C589.772 837.627 511.27 947.947 511.27 1084.03C511.27 1220.12 589.772 1330.44 686.61 1330.44Z" fill="#D8DEE8"/>
<path d="M547.904 1191.78C590.25 1191.78 624.578 1143.54 624.578 1084.03C624.578 1024.53 590.25 976.284 547.904 976.284C505.558 976.284 471.23 1024.53 471.23 1084.03C471.23 1143.54 505.558 1191.78 547.904 1191.78Z" fill="#BFC8D6"/>
<g style="mix-blend-mode:multiply" opacity="0.4">
<path d="M1535.93 1879.45C1506.55 1741.5 1181.64 1744.83 1172.8 1654.66C1165.99 1585.15 1352.54 1516.33 1375.98 1507.68C1396.03 1500.28 1415.93 1494.03 1435.63 1488.67H1083.7C966.559 1488.67 871.594 1583.63 871.594 1700.78V1700.78C871.594 1920.32 1049.56 2098.28 1269.09 2098.28H1483.2C1503.46 2098.29 1523.68 2096.76 1543.71 2093.71C1525.07 2070.61 1512.93 2045.36 1509.99 2017.79C1503.48 1956.67 1547.31 1932.91 1535.93 1879.45Z" fill="#D8DEE8"/>
</g>
<path d="M1381.42 1541.42C1568.17 1541.42 1719.56 1523.09 1719.56 1500.48C1719.56 1477.87 1568.17 1459.54 1381.42 1459.54C1194.67 1459.54 1043.28 1477.87 1043.28 1500.48C1043.28 1523.09 1194.67 1541.42 1381.42 1541.42Z" fill="#D8DEE8"/>
<path d="M2509.75 1466.64C2452.01 1444.5 2388.89 1455.65 2338.02 1490.94C2319.43 1398.03 2260.38 1319.39 2172.44 1285.67C2028.35 1230.41 1861.29 1316.66 1799.3 1478.32C1783.84 1518.34 1775.99 1560.9 1776.13 1603.8C1768.6 1599.08 1760.62 1595.1 1752.32 1591.91C1673.6 1561.72 1582.32 1608.85 1548.45 1697.17C1514.58 1785.49 1549.78 1884.78 1629.67 1911.75C1672.33 1926.16 1739.84 1926.43 1739.84 1926.43C1739.84 1926.43 2396.52 1877.52 2416.77 1877.69C2497.66 1878.37 2577.39 1823.03 2611.23 1734.77C2653.56 1624.41 2608.12 1504.37 2509.75 1466.64Z" fill="url(#paint10_linear_1728_33709)"/>
<path d="M2529.27 1466.72C2471.54 1444.58 2408.41 1455.73 2357.55 1491.02C2338.96 1398.11 2279.91 1319.47 2191.97 1285.75C2047.88 1230.49 1880.81 1316.74 1818.82 1478.39C1803.37 1518.42 1795.51 1560.97 1795.65 1603.88C1788.12 1599.16 1780.15 1595.18 1771.85 1591.99C1693.12 1561.8 1601.85 1608.93 1567.98 1697.25C1534.1 1785.57 1570.47 1881.64 1649.19 1911.83C1665.85 1918.22 1759.37 1926.5 1759.37 1926.5C1759.37 1926.5 2416.04 1877.6 2436.3 1877.77C2517.19 1878.44 2596.91 1823.11 2630.76 1734.85C2673.08 1624.49 2627.65 1504.45 2529.27 1466.72Z" fill="url(#paint11_linear_1728_33709)"/>
<path d="M974.491 1611.06C968.515 1615.96 963.562 1621.99 959.915 1628.8C956.268 1635.61 953.999 1643.07 953.236 1650.76C952.474 1658.45 953.233 1666.22 955.471 1673.61C957.709 1681.01 961.382 1687.89 966.28 1693.86L1136.01 1900.96L1227.02 1826.37L1057.29 1619.27C1052.39 1613.3 1046.37 1608.35 1039.56 1604.7C1032.74 1601.05 1025.28 1598.78 1017.59 1598.02C1009.9 1597.26 1002.14 1598.02 994.744 1600.25C987.349 1602.49 980.467 1606.17 974.491 1611.06Z" fill="white"/>
<path d="M1506.52 1806.96C1505.65 1799.28 1503.27 1791.85 1499.52 1785.09C1495.78 1778.33 1490.74 1772.38 1484.7 1767.57C1478.65 1762.76 1471.72 1759.18 1464.29 1757.05C1456.86 1754.92 1449.09 1754.27 1441.41 1755.15L1175.36 1785.4L1188.66 1902.32L1454.71 1872.07C1462.38 1871.19 1469.81 1868.82 1476.57 1865.07C1483.33 1861.33 1489.29 1856.29 1494.1 1850.24C1498.91 1844.2 1502.48 1837.26 1504.61 1829.84C1506.74 1822.41 1507.39 1814.64 1506.52 1806.96Z" fill="white"/>
<path d="M1235.73 1914.99C1269.07 1881.65 1269.07 1827.59 1235.73 1794.25C1202.39 1760.91 1148.33 1760.91 1114.99 1794.25C1081.65 1827.59 1081.65 1881.65 1114.99 1914.99C1148.33 1948.33 1202.39 1948.33 1235.73 1914.99Z" fill="url(#paint12_linear_1728_33709)"/>
<path d="M1452.21 1766.05L1496.15 1873.9C1502.68 1889.93 1527.45 1894.71 1546.35 1883.33C1574.04 1866.65 1604.31 1838.2 1592.09 1797.06C1576.63 1745 1530.64 1730.01 1492.8 1726.97C1467.12 1724.9 1444.41 1746.91 1452.21 1766.05Z" fill="url(#paint13_linear_1728_33709)"/>
<defs>
<linearGradient id="paint0_linear_1728_33709" x1="1172.53" y1="132.41" x2="822.904" y2="2596.06" gradientUnits="userSpaceOnUse">
<stop stop-color="#FFC444"/>
<stop offset="0.9964" stop-color="#F36F56"/>
</linearGradient>
<linearGradient id="paint1_linear_1728_33709" x1="196.339" y1="1043.62" x2="1506.36" y2="3200.25" gradientUnits="userSpaceOnUse">
<stop offset="0.0036" stop-color="#E38DDD"/>
<stop offset="1" stop-color="#9571F6"/>
</linearGradient>
<linearGradient id="paint2_linear_1728_33709" x1="1520.24" y1="2389.48" x2="1518.4" y2="2509.01" gradientUnits="userSpaceOnUse">
<stop stop-color="#444B8C"/>
<stop offset="0.9964" stop-color="#26264F"/>
</linearGradient>
<linearGradient id="paint3_linear_1728_33709" x1="1541" y1="2626.68" x2="1350.1" y2="2048.7" gradientUnits="userSpaceOnUse">
<stop stop-color="#444B8C"/>
<stop offset="0.9964" stop-color="#26264F"/>
</linearGradient>
<linearGradient id="paint4_linear_1728_33709" x1="2387.22" y1="2571.38" x2="612.959" y2="2571.38" gradientUnits="userSpaceOnUse">
<stop stop-color="#FF9085"/>
<stop offset="1" stop-color="#FB6FBB"/>
</linearGradient>
<linearGradient id="paint5_linear_1728_33709" x1="2105.43" y1="2622.86" x2="2076.77" y2="2626.35" gradientUnits="userSpaceOnUse">
<stop stop-color="#FF9085"/>
<stop offset="1" stop-color="#FB6FBB"/>
</linearGradient>
<linearGradient id="paint6_linear_1728_33709" x1="1560.09" y1="2683.09" x2="1558.13" y2="2733.76" gradientUnits="userSpaceOnUse">
<stop stop-color="#444B8C"/>
<stop offset="0.9964" stop-color="#26264F"/>
</linearGradient>
<linearGradient id="paint7_linear_1728_33709" x1="1430.71" y1="2678.07" x2="1428.75" y2="2728.74" gradientUnits="userSpaceOnUse">
<stop stop-color="#444B8C"/>
<stop offset="0.9964" stop-color="#26264F"/>
</linearGradient>
<linearGradient id="paint8_linear_1728_33709" x1="1268.74" y1="2671.79" x2="1266.77" y2="2722.47" gradientUnits="userSpaceOnUse">
<stop stop-color="#444B8C"/>
<stop offset="0.9964" stop-color="#26264F"/>
</linearGradient>
<linearGradient id="paint9_linear_1728_33709" x1="1058.63" y1="1091.41" x2="1977.49" y2="1091.41" gradientUnits="userSpaceOnUse">
<stop stop-color="#444B8C"/>
<stop offset="0.9964" stop-color="#26264F"/>
</linearGradient>
<linearGradient id="paint10_linear_1728_33709" x1="1535.61" y1="1597.69" x2="2627.07" y2="1597.69" gradientUnits="userSpaceOnUse">
<stop stop-color="#40447E"/>
<stop offset="0.9964" stop-color="#3C3B6B"/>
</linearGradient>
<linearGradient id="paint11_linear_1728_33709" x1="2329.99" y1="1457.96" x2="1857.02" y2="1991.96" gradientUnits="userSpaceOnUse">
<stop stop-color="#AA80F9"/>
<stop offset="0.9964" stop-color="#6165D7"/>
</linearGradient>
<linearGradient id="paint12_linear_1728_33709" x1="1245.2" y1="1766.4" x2="1054.52" y2="2007.26" gradientUnits="userSpaceOnUse">
<stop stop-color="#444B8C"/>
<stop offset="0.9964" stop-color="#26264F"/>
</linearGradient>
<linearGradient id="paint13_linear_1728_33709" x1="1621.24" y1="1837.18" x2="1363.73" y2="1692.13" gradientUnits="userSpaceOnUse">
<stop stop-color="#444B8C"/>
<stop offset="0.9964" stop-color="#26264F"/>
</linearGradient>
</defs>
</svg>
